solid exported
	facet normal 0 0.9999996831921507 0.0007959997478201868
		outer loop
			vertex -3 -0.09840800000000154 -2
			vertex -3 -0.10159199999999848 2
			vertex 3 -0.09840800000000154 -2
		endloop
	endfacet
	facet normal 0 0.9999996831921507 0.0007959997478201868
		outer loop
			vertex -3 -0.10159199999999848 2
			vertex 3 -0.10159199999999848 2
			vertex 3 -0.09840800000000154 -2
		endloop
	endfacet
	facet normal 1 0 0
		outer loop
			vertex 0.05000000074505806 0.05000000074505806 0.05000000074505806
			vertex 0.05000000074505806 -0.05000000074505806 0.05000000074505806
			vertex 0.05000000074505806 0.05000000074505806 -0.05000000074505806
		endloop
	endfacet
	facet normal 1 0 0
		outer loop
			vertex 0.05000000074505806 -0.05000000074505806 0.05000000074505806
			vertex 0.05000000074505806 -0.05000000074505806 -0.05000000074505806
			vertex 0.05000000074505806 0.05000000074505806 -0.05000000074505806
		endloop
	endfacet
	facet normal -1 0 0
		outer loop
			vertex -0.05000000074505806 0.05000000074505806 -0.05000000074505806
			vertex -0.05000000074505806 -0.05000000074505806 -0.05000000074505806
			vertex -0.05000000074505806 0.05000000074505806 0.05000000074505806
		endloop
	endfacet
	facet normal -1 0 0
		outer loop
			vertex -0.05000000074505806 -0.05000000074505806 -0.05000000074505806
			vertex -0.05000000074505806 -0.05000000074505806 0.05000000074505806
			vertex -0.05000000074505806 0.05000000074505806 0.05000000074505806
		endloop
	endfacet
	facet normal 0 1 0
		outer loop
			vertex -0.05000000074505806 0.05000000074505806 -0.05000000074505806
			vertex -0.05000000074505806 0.05000000074505806 0.05000000074505806
			vertex 0.05000000074505806 0.05000000074505806 -0.05000000074505806
		endloop
	endfacet
	facet normal 0 1 0
		outer loop
			vertex -0.05000000074505806 0.05000000074505806 0.05000000074505806
			vertex 0.05000000074505806 0.05000000074505806 0.05000000074505806
			vertex 0.05000000074505806 0.05000000074505806 -0.05000000074505806
		endloop
	endfacet
	facet normal 0 -1 0
		outer loop
			vertex -0.05000000074505806 -0.05000000074505806 0.05000000074505806
			vertex -0.05000000074505806 -0.05000000074505806 -0.05000000074505806
			vertex 0.05000000074505806 -0.05000000074505806 0.05000000074505806
		endloop
	endfacet
	facet normal 0 -1 0
		outer loop
			vertex -0.05000000074505806 -0.05000000074505806 -0.05000000074505806
			vertex 0.05000000074505806 -0.05000000074505806 -0.05000000074505806
			vertex 0.05000000074505806 -0.05000000074505806 0.05000000074505806
		endloop
	endfacet
	facet normal 0 0 1
		outer loop
			vertex -0.05000000074505806 0.05000000074505806 0.05000000074505806
			vertex -0.05000000074505806 -0.05000000074505806 0.05000000074505806
			vertex 0.05000000074505806 0.05000000074505806 0.05000000074505806
		endloop
	endfacet
	facet normal 0 0 1
		outer loop
			vertex -0.05000000074505806 -0.05000000074505806 0.05000000074505806
			vertex 0.05000000074505806 -0.05000000074505806 0.05000000074505806
			vertex 0.05000000074505806 0.05000000074505806 0.05000000074505806
		endloop
	endfacet
	facet normal 0 0 -1
		outer loop
			vertex 0.05000000074505806 0.05000000074505806 -0.05000000074505806
			vertex 0.05000000074505806 -0.05000000074505806 -0.05000000074505806
			vertex -0.05000000074505806 0.05000000074505806 -0.05000000074505806
		endloop
	endfacet
	facet normal 0 0 -1
		outer loop
			vertex 0.05000000074505806 -0.05000000074505806 -0.05000000074505806
			vertex -0.05000000074505806 -0.05000000074505806 -0.05000000074505806
			vertex -0.05000000074505806 0.05000000074505806 -0.05000000074505806
		endloop
	endfacet
	facet normal 1 0 0
		outer loop
			vertex -2.299999998509884 0.10000000149011612 0.5
			vertex -2.299999998509884 -0.10000000149011612 0.5
			vertex -2.299999998509884 0.10000000149011612 -0.5
		endloop
	endfacet
	facet normal 1 0 0
		outer loop
			vertex -2.299999998509884 -0.10000000149011612 0.5
			vertex -2.299999998509884 -0.10000000149011612 -0.5
			vertex -2.299999998509884 0.10000000149011612 -0.5
		endloop
	endfacet
	facet normal -1 0 0
		outer loop
			vertex -2.500000001490116 0.10000000149011612 -0.5
			vertex -2.500000001490116 -0.10000000149011612 -0.5
			vertex -2.500000001490116 0.10000000149011612 0.5
		endloop
	endfacet
	facet normal -1 0 0
		outer loop
			vertex -2.500000001490116 -0.10000000149011612 -0.5
			vertex -2.500000001490116 -0.10000000149011612 0.5
			vertex -2.500000001490116 0.10000000149011612 0.5
		endloop
	endfacet
	facet normal 0 1 0
		outer loop
			vertex -2.500000001490116 0.10000000149011612 -0.5
			vertex -2.500000001490116 0.10000000149011612 0.5
			vertex -2.299999998509884 0.10000000149011612 -0.5
		endloop
	endfacet
	facet normal 0 1 0
		outer loop
			vertex -2.500000001490116 0.10000000149011612 0.5
			vertex -2.299999998509884 0.10000000149011612 0.5
			vertex -2.299999998509884 0.10000000149011612 -0.5
		endloop
	endfacet
	facet normal 0 -1 0
		outer loop
			vertex -2.500000001490116 -0.10000000149011612 0.5
			vertex -2.500000001490116 -0.10000000149011612 -0.5
			vertex -2.299999998509884 -0.10000000149011612 0.5
		endloop
	endfacet
	facet normal 0 -1 0
		outer loop
			vertex -2.500000001490116 -0.10000000149011612 -0.5
			vertex -2.299999998509884 -0.10000000149011612 -0.5
			vertex -2.299999998509884 -0.10000000149011612 0.5
		endloop
	endfacet
	facet normal 0 0 1
		outer loop
			vertex -2.500000001490116 0.10000000149011612 0.5
			vertex -2.500000001490116 -0.10000000149011612 0.5
			vertex -2.299999998509884 0.10000000149011612 0.5
		endloop
	endfacet
	facet normal 0 0 1
		outer loop
			vertex -2.500000001490116 -0.10000000149011612 0.5
			vertex -2.299999998509884 -0.10000000149011612 0.5
			vertex -2.299999998509884 0.10000000149011612 0.5
		endloop
	endfacet
	facet normal 0 0 -1
		outer loop
			vertex -2.299999998509884 0.10000000149011612 -0.5
			vertex -2.299999998509884 -0.10000000149011612 -0.5
			vertex -2.500000001490116 0.10000000149011612 -0.5
		endloop
	endfacet
	facet normal 0 0 -1
		outer loop
			vertex -2.299999998509884 -0.10000000149011612 -0.5
			vertex -2.500000001490116 -0.10000000149011612 -0.5
			vertex -2.500000001490116 0.10000000149011612 -0.5
		endloop
	endfacet
	facet normal 1 0 0
		outer loop
			vertex 2.500000001490116 0.10000000149011612 0.5
			vertex 2.500000001490116 -0.10000000149011612 0.5
			vertex 2.500000001490116 0.10000000149011612 -0.5
		endloop
	endfacet
	facet normal 1 0 0
		outer loop
			vertex 2.500000001490116 -0.10000000149011612 0.5
			vertex 2.500000001490116 -0.10000000149011612 -0.5
			vertex 2.500000001490116 0.10000000149011612 -0.5
		endloop
	endfacet
	facet normal -1 0 0
		outer loop
			vertex 2.299999998509884 0.10000000149011612 -0.5
			vertex 2.299999998509884 -0.10000000149011612 -0.5
			vertex 2.299999998509884 0.10000000149011612 0.5
		endloop
	endfacet
	facet normal -1 0 0
		outer loop
			vertex 2.299999998509884 -0.10000000149011612 -0.5
			vertex 2.299999998509884 -0.10000000149011612 0.5
			vertex 2.299999998509884 0.10000000149011612 0.5
		endloop
	endfacet
	facet normal 0 1 0
		outer loop
			vertex 2.299999998509884 0.10000000149011612 -0.5
			vertex 2.299999998509884 0.10000000149011612 0.5
			vertex 2.500000001490116 0.10000000149011612 -0.5
		endloop
	endfacet
	facet normal 0 1 0
		outer loop
			vertex 2.299999998509884 0.10000000149011612 0.5
			vertex 2.500000001490116 0.10000000149011612 0.5
			vertex 2.500000001490116 0.10000000149011612 -0.5
		endloop
	endfacet
	facet normal 0 -1 0
		outer loop
			vertex 2.299999998509884 -0.10000000149011612 0.5
			vertex 2.299999998509884 -0.10000000149011612 -0.5
			vertex 2.500000001490116 -0.10000000149011612 0.5
		endloop
	endfacet
	facet normal 0 -1 0
		outer loop
			vertex 2.299999998509884 -0.10000000149011612 -0.5
			vertex 2.500000001490116 -0.10000000149011612 -0.5
			vertex 2.500000001490116 -0.10000000149011612 0.5
		endloop
	endfacet
	facet normal 0 0 1
		outer loop
			vertex 2.299999998509884 0.10000000149011612 0.5
			vertex 2.299999998509884 -0.10000000149011612 0.5
			vertex 2.500000001490116 0.10000000149011612 0.5
		endloop
	endfacet
	facet normal 0 0 1
		outer loop
			vertex 2.299999998509884 -0.10000000149011612 0.5
			vertex 2.500000001490116 -0.10000000149011612 0.5
			vertex 2.500000001490116 0.10000000149011612 0.5
		endloop
	endfacet
	facet normal 0 0 -1
		outer loop
			vertex 2.500000001490116 0.10000000149011612 -0.5
			vertex 2.500000001490116 -0.10000000149011612 -0.5
			vertex 2.299999998509884 0.10000000149011612 -0.5
		endloop
	endfacet
	facet normal 0 0 -1
		outer loop
			vertex 2.500000001490116 -0.10000000149011612 -0.5
			vertex 2.299999998509884 -0.10000000149011612 -0.5
			vertex 2.299999998509884 0.10000000149011612 -0.5
		endloop
	endfacet
	facet normal 1 0 0
		outer loop
			vertex 25 0 25
			vertex 25 -50 25
			vertex 25 0 -25
		endloop
	endfacet
	facet normal 1 0 0
		outer loop
			vertex 25 -50 25
			vertex 25 -50 -25
			vertex 25 0 -25
		endloop
	endfacet
	facet normal -1 0 0
		outer loop
			vertex -25 0 -25
			vertex -25 -50 -25
			vertex -25 0 25
		endloop
	endfacet
	facet normal -1 0 0
		outer loop
			vertex -25 -50 -25
			vertex -25 -50 25
			vertex -25 0 25
		endloop
	endfacet
	facet normal 0 1 0
		outer loop
			vertex -25 0 -25
			vertex -25 0 25
			vertex 25 0 -25
		endloop
	endfacet
	facet normal 0 1 0
		outer loop
			vertex -25 0 25
			vertex 25 0 25
			vertex 25 0 -25
		endloop
	endfacet
	facet normal 0 -1 0
		outer loop
			vertex -25 -50 25
			vertex -25 -50 -25
			vertex 25 -50 25
		endloop
	endfacet
	facet normal 0 -1 0
		outer loop
			vertex -25 -50 -25
			vertex 25 -50 -25
			vertex 25 -50 25
		endloop
	endfacet
	facet normal 0 0 1
		outer loop
			vertex -25 0 25
			vertex -25 -50 25
			vertex 25 0 25
		endloop
	endfacet
	facet normal 0 0 1
		outer loop
			vertex -25 -50 25
			vertex 25 -50 25
			vertex 25 0 25
		endloop
	endfacet
	facet normal 0 0 -1
		outer loop
			vertex 25 0 -25
			vertex 25 -50 -25
			vertex -25 0 -25
		endloop
	endfacet
	facet normal 0 0 -1
		outer loop
			vertex 25 -50 -25
			vertex -25 -50 -25
			vertex -25 0 -25
		endloop
	endfacet
endsolid exported
